<svg width="124" height="28" viewBox="0 0 124 28" fill="none" xmlns="http://www.w3.org/2000/svg">
<path fill-rule="evenodd" clip-rule="evenodd" d="M2.23382 6.07352C2.23376 7.09257 2.63895 8.0699 3.36025 8.79053C4.08155 9.51115 5.05989 9.91603 6.08003 9.9161C7.10018 9.91616 8.07856 9.51141 8.79996 8.79087C9.52135 8.07034 9.92667 7.09305 9.92673 6.074C9.92679 5.05495 9.52161 4.07761 8.8003 3.35699C8.079 2.63637 7.10066 2.23149 6.08052 2.23142C5.06038 2.23136 4.08199 2.63611 3.36059 3.35664C2.6392 4.07718 2.23389 5.05446 2.23382 6.07352ZM6.07989 12.1471C4.77816 12.1469 3.51087 11.7293 2.46447 10.9558C1.41807 10.1824 0.647812 9.09382 0.267025 7.85036C-0.113762 6.6069 -0.0849748 5.27419 0.349152 4.04829C0.783279 2.8224 1.59982 1.76805 2.67865 1.04038C3.75747 0.312711 5.04162 -0.0498668 6.34215 0.00599497C7.64268 0.0618567 8.89092 0.533208 9.90324 1.3507C10.9156 2.16819 11.6385 3.28866 11.9657 4.54726C12.2928 5.80585 12.207 7.13612 11.7208 8.34234L14.1129 9.93892C14.0954 9.99481 14.0788 10.051 14.0633 10.1075L13.681 11.4709L12.805 12.0558L10.3384 10.4097C9.24147 11.483 7.73759 12.1472 6.07989 12.1471ZM2.23288 20.9843C2.23294 19.9652 2.63825 18.9879 3.35965 18.2674C4.08104 17.5469 5.05943 17.1421 6.07957 17.1422C7.09972 17.1422 8.07805 17.5471 8.79936 18.2677C9.52066 18.9884 9.92585 19.9657 9.92578 20.9847C9.92572 22.0038 9.52041 22.9811 8.79901 23.7016C8.07761 24.4222 7.09923 24.8269 6.07909 24.8268C5.05894 24.8268 4.08061 24.4219 3.3593 23.7013C2.638 22.9806 2.23281 22.0033 2.23288 20.9843ZM6.07972 14.9111C4.77913 14.9112 3.51283 15.3279 2.46683 16.1C1.42082 16.8721 0.65024 17.9589 0.268262 19.2008C-0.113715 20.4427 -0.0869547 21.7742 0.344614 22.9998C0.776182 24.2254 1.58981 25.2804 2.666 26.01C3.74218 26.7395 5.02419 27.1051 6.32374 27.053C7.62328 27.0009 8.87186 26.5339 9.88608 25.7206C10.9003 24.9073 11.6267 23.7905 11.9586 22.5344C12.2905 21.2782 12.2104 19.9488 11.73 18.7414L37.1003 1.84552L34.7403 2.03989C31.4123 2.3895 28.1894 3.40789 25.2655 5.03383L17.6343 9.27231C17.3477 9.4322 17.0958 9.6473 16.893 9.90515C16.6902 10.163 16.5407 10.4585 16.453 10.7745L15.825 13.0203L10.3579 16.6714C9.221 15.5426 7.6827 14.9096 6.07972 14.9111ZM17.604 17.7998L17.6338 17.8172L25.2644 22.0566C28.1881 23.6829 31.4109 24.7017 34.7389 25.0518L34.398 23.3766L31.1732 21.3533L21.7385 15.0361L17.604 17.7998Z" fill="#8162FF"/>
<path d="M30.9952 17.5424C31.5871 17.5424 32.0206 17.3756 32.2957 17.0422C32.5708 16.7087 32.7084 16.3127 32.7084 15.8542V14.9788C32.7084 14.4369 32.5333 14.0534 32.1832 13.8283C31.833 13.5949 31.437 13.4782 30.9952 13.4782H30.0198V17.5424H30.9952ZM32.5333 9.08881C32.5333 8.5886 32.3958 8.24262 32.1207 8.05088C31.8455 7.85079 31.4495 7.75075 30.9327 7.75075H30.0198V11.3648H31.0327C31.5162 11.3648 31.8872 11.1772 32.1457 10.802C32.4041 10.4185 32.5333 9.95168 32.5333 9.40144V9.08881ZM31.8455 20.106C31.1953 20.106 30.3532 20.0893 29.3195 20.0559C28.2857 20.0226 27.5437 20.0017 27.0935 19.9934H25.893V5.33723H28.0564C28.5817 5.33723 29.1819 5.32056 29.8572 5.28721C30.5325 5.24553 31.0202 5.22469 31.3203 5.22469C32.2957 5.22469 33.1169 5.30389 33.7839 5.46229C34.4591 5.62069 34.9885 5.85829 35.372 6.17509C35.7555 6.49189 36.0265 6.85871 36.1849 7.27555C36.3516 7.69239 36.435 8.18843 36.435 8.76368C36.435 9.64738 36.2307 10.406 35.8222 11.0396C35.4137 11.6732 34.8218 12.0692 34.0465 12.2276C36.014 12.4027 36.9977 13.5574 36.9977 15.6916C36.9977 16.3335 36.9018 16.9171 36.7101 17.4423C36.5183 17.9592 36.2224 18.4219 35.8222 18.8304C35.4304 19.2306 34.8968 19.5432 34.2215 19.7683C33.5463 19.9934 32.7543 20.106 31.8455 20.106ZM43.7061 18.8804L43.581 19.018C43.4977 19.118 43.3685 19.2348 43.1934 19.3681C43.0266 19.5015 42.8307 19.6349 42.6056 19.7683C42.3889 19.9017 42.1221 20.0143 41.8053 20.106C41.4885 20.206 41.1634 20.256 40.8299 20.256C38.5789 20.256 37.4535 19.143 37.4535 16.9171C37.4535 16.4836 37.5327 16.0876 37.6911 15.7291C37.8495 15.3623 38.0537 15.0538 38.3038 14.8037C38.5539 14.5536 38.8541 14.3327 39.2042 14.1409C39.5544 13.9409 39.9045 13.7866 40.2546 13.6782C40.6131 13.5615 40.9883 13.4657 41.3801 13.3906C41.772 13.3156 42.1221 13.2656 42.4306 13.2406C42.739 13.2156 43.035 13.203 43.3184 13.203V12.978C43.3184 12.4694 43.1809 12.1109 42.9058 11.9025C42.639 11.6941 42.2055 11.5899 41.6052 11.5899C41.0883 11.5899 40.5506 11.6524 39.992 11.7774C39.4335 11.8942 38.9958 12.0359 38.679 12.2026L37.8786 10.5019C38.4456 10.1351 39.1834 9.81412 40.0921 9.539C41.0008 9.25555 41.9262 9.11382 42.8682 9.11382C43.7019 9.11382 44.3897 9.19719 44.9316 9.36393C45.4735 9.52233 45.9112 9.79745 46.2447 10.1893C46.5865 10.5728 46.8283 11.0646 46.97 11.6649C47.1117 12.2568 47.1826 13.0113 47.1826 13.9284V19.018L47.5327 19.9934H44.1063L43.7061 18.8804ZM42.7182 18.0551C42.8266 18.0551 42.9266 18.0342 43.0183 17.9926C43.1184 17.9425 43.1934 17.8967 43.2434 17.855C43.2934 17.805 43.3184 17.78 43.3184 17.78V14.7787C42.8099 14.7787 42.4056 14.9204 42.1054 15.2039C41.8053 15.479 41.6552 15.9084 41.6552 16.4919C41.6552 17.534 42.0096 18.0551 42.7182 18.0551ZM52.8211 19.9934H48.7819V11.9025L48.0316 11.4398V10.0267L50.7202 9.36393H51.7331L52.0958 12.3402C52.4376 10.2977 53.5339 9.27639 55.3847 9.27639C55.5931 9.27639 55.8098 9.31391 56.0349 9.38894L55.6097 13.8408C55.4347 13.6824 55.0512 13.6032 54.4593 13.6032C53.6089 13.6032 53.0628 13.8283 52.8211 14.2785V19.9934ZM63.4278 19.9934C62.4941 19.9934 61.6604 19.7975 60.9267 19.4057V19.9934H56.85V5.84995L56.0997 5.39976V4.23677L60.1139 3.61151H60.9267V10.3393C61.0601 10.1893 61.206 10.0476 61.3644 9.91416C61.5228 9.78077 61.7146 9.65155 61.9397 9.5265C62.1648 9.40145 62.419 9.3014 62.7025 9.22637C62.9943 9.15134 63.3027 9.11382 63.6279 9.11382C65.0035 9.11382 66.0122 9.58486 66.6542 10.5269C67.3044 11.469 67.6296 12.7737 67.6296 14.4411C67.6296 15.2247 67.542 15.95 67.367 16.617C67.1919 17.2756 66.9334 17.8592 66.5916 18.3677C66.2498 18.8763 65.808 19.2764 65.2661 19.5682C64.7325 19.8517 64.1197 19.9934 63.4278 19.9934ZM61.5895 18.2552C62.7067 18.2552 63.2652 17.4006 63.2652 15.6916V13.5657C63.2652 12.8487 63.1318 12.2985 62.8651 11.915C62.6066 11.5232 62.2731 11.3273 61.8646 11.3273C61.5562 11.3273 61.2435 11.4398 60.9267 11.6649V18.1676C61.0518 18.201 61.1685 18.226 61.2769 18.2427C61.3853 18.251 61.4895 18.2552 61.5895 18.2552ZM74.5468 13.5282C74.5468 12.4694 74.4926 11.7191 74.3843 11.2772C74.2759 10.8354 74.0758 10.6145 73.784 10.6145C73.5339 10.6145 73.3297 10.6603 73.1713 10.752C73.0129 10.8354 72.8961 10.9729 72.8211 11.1647C72.7461 11.3481 72.6961 11.5398 72.671 11.7399C72.6544 11.9317 72.646 12.1776 72.646 12.4777V13.5282H74.5468ZM73.5464 20.256C72.6127 20.256 71.7998 20.1143 71.1079 19.8308C70.4243 19.5474 69.8824 19.1514 69.4822 18.6428C69.0904 18.1343 68.8027 17.5632 68.6193 16.9296C68.4359 16.2877 68.3442 15.5749 68.3442 14.7912C68.3442 12.9238 68.8194 11.5107 69.7698 10.5519C70.7202 9.59319 72.0499 9.11382 73.759 9.11382C75.4014 9.11382 76.5769 9.50149 77.2855 10.2768C77.9941 11.0438 78.3484 12.2818 78.3484 13.9909V15.379H72.6335V15.6166C72.6335 16.1084 72.6835 16.5128 72.7836 16.8296C72.892 17.1464 73.0462 17.3798 73.2463 17.5299C73.4464 17.6799 73.6506 17.78 73.859 17.83C74.0675 17.88 74.3217 17.905 74.6219 17.905C74.9137 17.905 75.2263 17.8675 75.5598 17.7925C75.9016 17.7174 76.2434 17.6007 76.5852 17.4423C76.9353 17.2839 77.2271 17.0964 77.4606 16.8796L78.1984 18.1426C77.8899 18.6428 77.4355 19.0638 76.8353 19.4057C76.2434 19.7391 75.6723 19.9642 75.1221 20.0809C74.5718 20.1977 74.0466 20.256 73.5464 20.256ZM83.7423 19.9934H79.7031V11.9025L78.9528 11.4398V10.0267L81.6414 9.36393H82.6543L83.017 12.3402C83.3588 10.2977 84.4551 9.27639 86.3059 9.27639C86.5143 9.27639 86.7311 9.31391 86.9562 9.38894L86.531 13.8408C86.3559 13.6824 85.9724 13.6032 85.3805 13.6032C84.5301 13.6032 83.9841 13.8283 83.7423 14.2785V19.9934Z" fill="white"/>
<path d="M91.948 19.9934H87.8088V5.33723H91.948V11.1397H95.1619V5.33723H99.3011V19.9934H95.1619V14.0159H91.948V19.9934ZM107.214 18.3302C107.164 18.4469 107.06 18.6012 106.901 18.7929C106.751 18.9846 106.551 19.1972 106.301 19.4307C106.051 19.6558 105.742 19.8475 105.376 20.0059C105.009 20.1727 104.638 20.256 104.263 20.256C103.087 20.256 102.245 19.9059 101.737 19.2056C101.236 18.5053 100.986 17.3381 100.986 15.7041V11.2522L100.549 10.802V9.36393H105.088V16.4919C105.08 16.8671 105.142 17.1464 105.276 17.3298C105.409 17.5049 105.651 17.5924 106.001 17.5924C106.051 17.5924 106.097 17.5924 106.138 17.5924C106.18 17.5841 106.222 17.5757 106.264 17.5674C106.305 17.5507 106.339 17.5382 106.364 17.5299C106.397 17.5215 106.434 17.509 106.476 17.4924C106.518 17.4673 106.551 17.4465 106.576 17.4298C106.601 17.4132 106.635 17.3923 106.676 17.3673C106.718 17.334 106.747 17.3089 106.764 17.2923C106.789 17.2756 106.822 17.2506 106.864 17.2172C106.914 17.1756 106.951 17.1464 106.976 17.1297V11.2522L106.301 10.802V9.36393H111.066V19.9934H107.602L107.214 18.3302ZM119.189 19.9934C118.255 19.9934 117.421 19.7975 116.688 19.4057V19.9934H112.611V5.84995L111.861 5.39976V4.23677L115.875 3.61151H116.688V10.3393C116.821 10.1893 116.967 10.0476 117.125 9.91416C117.284 9.78077 117.475 9.65155 117.7 9.5265C117.926 9.40145 118.18 9.3014 118.463 9.22637C118.755 9.15134 119.064 9.11382 119.389 9.11382C120.764 9.11382 121.773 9.58486 122.415 10.5269C123.065 11.469 123.39 12.7737 123.39 14.4411C123.39 15.2247 123.303 15.95 123.128 16.617C122.953 17.2756 122.694 17.8592 122.352 18.3677C122.011 18.8763 121.569 19.2764 121.027 19.5682C120.493 19.8517 119.881 19.9934 119.189 19.9934ZM117.35 18.2552C118.467 18.2552 119.026 17.4006 119.026 15.6916V13.5657C119.026 12.8487 118.893 12.2985 118.626 11.915C118.367 11.5232 118.034 11.3273 117.625 11.3273C117.317 11.3273 117.004 11.4398 116.688 11.6649V18.1676C116.813 18.201 116.929 18.226 117.038 18.2427C117.146 18.251 117.25 18.2552 117.35 18.2552Z" fill="#6155F5"/>
</svg>
